<?xml version="1.0" encoding="UTF-8"?>
<svg id="Design" xmlns="http://www.w3.org/2000/svg" xmlns:xlink="http://www.w3.org/1999/xlink" version="1.1" viewBox="0 0 1000 1000">
  <!-- Generator: Adobe Illustrator 29.5.0, SVG Export Plug-In . SVG Version: 2.1.0 Build 137)  -->
  <defs>
    <style>
      .st0 {
        fill: url(#linear-gradient2);
      }

      .st1 {
        fill: url(#linear-gradient1);
      }

      .st2 {
        fill: #113fd1;
      }

      .st3 {
        fill: url(#linear-gradient);
      }
    </style>
    <linearGradient id="linear-gradient" x1="405.83" y1="438.02" x2="601.85" y2="438.02" gradientUnits="userSpaceOnUse">
      <stop offset="0" stop-color="#3dcbfc"/>
      <stop offset="1" stop-color="#0b6adb"/>
    </linearGradient>
    <linearGradient id="linear-gradient1" x1="405.83" y1="513.65" x2="601.85" y2="513.65" xlink:href="#linear-gradient"/>
    <linearGradient id="linear-gradient2" x1="405.83" y1="567.54" x2="601.85" y2="567.54" xlink:href="#linear-gradient"/>
  </defs>
  <polygon class="st2" points="466.38 434.22 457.14 450.23 446.64 432.04 455.88 416.03 466.38 434.22"/>
  <g>
    <path class="st3" d="M466.38,434.22l24.21,41.92c6.61,11.46,18.83,18.52,32.06,18.52h67.18c2.65,0,5.03-1.59,6.07-4l8.98-20.87h-82.23c-4.33,0-8.35-2.31-10.52-6.08l-9.01-15.59-22.39-38.76-8.7-15.08-1.8-3.11-2.89-5.01c-1.7-2.96-4.86-4.78-8.27-4.78h-23.22l20.02,34.66,10.5,18.19Z"/>
    <path class="st1" d="M466.76,515.51c6.61-11.46,6.61-25.56,0-37.02l-3.36-5.82-9.61-16.65-10.5-18.17v-.02l-10.12-17.51c-1.32-2.3-3.89-3.57-6.5-3.27l-22.57,2.66,24.82,42.99,10.5,18.19,5.8,10.04c2.17,3.75,2.17,8.38,0,12.15l-22.09,38.25-9.14,15.87h-.02l-10.48,18.19h-.02l-3.03,5.26c-1.72,2.96-1.7,6.6,0,9.54l11.61,20.11,20.14-34.91,10.5-18.19,7.87-13.64,16.19-28.04Z"/>
    <path class="st0" d="M539.4,516.45l-26.62.02c-13.23,0-25.45,7.04-32.06,18.5l-12.83,22.22-10.52,18.19-10.25,17.76c-1.32,2.3-1.14,5.16.43,7.28l13.59,18.21,24.95-43.24,10.5-18.19,5.66-9.79c2.17-3.75,6.18-6.07,10.52-6.07l46.27-.02h43.31c3.42.02,6.56-1.82,8.27-4.76l11.61-20.11h-82.81Z"/>
  </g>
  <path class="st2" d="M472.04,394.27l8.7,15.08.02-.02-8.71-15.06ZM569.13,494.66h-21.02l8.76,15.18h21l-8.75-15.18ZM493.22,399.57l13.53,23.43h.02l-13.54-23.43ZM472.04,394.27l8.7,15.08.02-.02-8.71-15.06ZM442.71,557.2l-10.5,18.19h.02l10.5-18.19h-.02ZM449.32,557.2l-10.5,18.19h18.55l10.52-18.19h-18.57Z"/>
  <polygon class="st2" points="554.76 469.79 533.76 469.79 506.75 423 506.76 423 493.22 399.57 482.72 399.57 472.04 381.38 503.72 381.38 554.76 469.79"/>
  <polygon class="st2" points="602.77 549.67 598.42 557.2 587.92 575.38 486.09 575.38 496.59 557.2 575.58 557.2 579.98 549.67 602.77 549.67"/>
  <polygon class="st2" points="398.79 551.29 398.08 552.52 401.67 558.73 391.71 575.38 388.29 569.46 377.79 551.29 428.93 462.7 439.43 480.89 416.45 520.7 398.79 551.29"/>
</svg>