<?xml version="1.0" encoding="UTF-8"?>
<svg id="Design" xmlns="http://www.w3.org/2000/svg" xmlns:xlink="http://www.w3.org/1999/xlink" version="1.1" viewBox="0 0 1000 1000">
  <!-- Generator: Adobe Illustrator 29.5.0, SVG Export Plug-In . SVG Version: 2.1.0 Build 137)  -->
  <defs>
    <style>
      .st0 {
        fill: url(#linear-gradient2);
      }

      .st1 {
        fill: url(#linear-gradient1);
      }

      .st2 {
        fill: #113fd1;
      }

      .st3 {
        fill: url(#linear-gradient);
      }

      .st4 {
        fill: #272e38;
      }
    </style>
    <linearGradient id="linear-gradient" x1="237.3" y1="461.42" x2="359.32" y2="461.42" gradientUnits="userSpaceOnUse">
      <stop offset="0" stop-color="#3dcbfc"/>
      <stop offset="1" stop-color="#0b6adb"/>
    </linearGradient>
    <linearGradient id="linear-gradient1" x1="237.3" y1="508.49" x2="359.32" y2="508.49" xlink:href="#linear-gradient"/>
    <linearGradient id="linear-gradient2" x1="237.3" y1="542.04" x2="359.32" y2="542.04" xlink:href="#linear-gradient"/>
  </defs>
  <g>
    <polygon class="st2" points="274.99 459.05 269.23 469.02 262.7 457.7 268.45 447.73 274.99 459.05"/>
    <g>
      <path class="st3" d="M274.99,459.05l15.07,26.09c4.12,7.13,11.72,11.53,19.96,11.53h41.82c1.65,0,3.13-.99,3.78-2.49l5.59-12.99h-51.19c-2.7,0-5.2-1.44-6.55-3.79l-5.61-9.71-13.94-24.13-5.41-9.39-1.12-1.93-1.8-3.12c-1.06-1.84-3.03-2.97-5.15-2.97h-14.45l12.46,21.57,6.54,11.32Z"/>
      <path class="st1" d="M275.22,509.65c4.12-7.13,4.12-15.91,0-23.05l-2.09-3.62-5.98-10.36-6.54-11.31h0s-6.3-10.91-6.3-10.91c-.82-1.43-2.42-2.22-4.05-2.04l-14.05,1.66,15.45,26.76,6.54,11.32,3.61,6.25c1.35,2.34,1.35,5.22,0,7.57l-13.75,23.81-5.69,9.88h-.01l-6.53,11.32h-.01l-1.88,3.27c-1.07,1.84-1.06,4.11,0,5.94l7.23,12.52,12.54-21.73,6.54-11.32,4.9-8.49,10.08-17.46Z"/>
      <path class="st0" d="M320.44,510.24h-16.57c-8.23.01-15.84,4.4-19.96,11.53l-7.99,13.83-6.55,11.32-6.38,11.05c-.82,1.43-.71,3.21.27,4.53l8.46,11.33,15.53-26.92,6.54-11.32,3.52-6.09c1.35-2.34,3.85-3.78,6.55-3.78h28.8s26.96-.01,26.96-.01c2.13.01,4.09-1.13,5.15-2.96l7.23-12.52h-51.55Z"/>
    </g>
    <path class="st2" d="M264.37,535.61l-6.55,11.33h11.55l6.55-11.33h-11.55ZM260.24,535.61l-6.53,11.33h.01l6.53-11.33h-.01ZM291.69,437.48l8.42,14.59h.01l-8.44-14.59ZM338.94,496.68h-13.08l5.46,9.44h13.07l-5.44-9.44Z"/>
    <path class="st2" d="M330,481.19h-13.07l-25.24-43.71h-6.54l-6.65-11.32h17.78c1.2,0,2.32.64,2.92,1.69l30.8,53.35Z"/>
    <path class="st2" d="M359.88,530.92l-8.27,14.32c-.6,1.04-1.71,1.69-2.92,1.69h-61.44l6.54-11.32h49.17l2.74-4.68h14.18Z"/>
    <path class="st2" d="M232.91,531.93l-.44.76,2.23,3.87-6.2,10.37-7.69-13.31c-.6-1.04-.6-2.33,0-3.37l30.86-53.46,6.54,11.32-25.3,43.83Z"/>
  </g>
  <g>
    <polygon class="st4" points="435.33 474.82 435.33 484.15 421.27 484.15 421.27 524.04 410.7 524.04 410.7 484.15 396.6 484.15 396.6 474.82 435.33 474.82"/>
    <rect class="st4" x="485.72" y="474.82" width="10.64" height="49.22"/>
    <path class="st4" d="M547.76,474.82v30.35c0,11.98-8.66,20.02-21.54,20.02s-21.58-8.24-21.58-20.02v-30.35h10.59v29.49c0,6.9,4.31,11.35,10.99,11.35s10.91-4.56,10.91-11.35v-29.49h10.64Z"/>
    <polygon class="st4" points="608.1 474.82 581.42 512.19 566.63 491.11 566.63 524.04 556 524.04 556 474.82 565.5 474.82 581.98 497.61 581.98 496.05 597.58 474.82 608.1 474.82"/>
    <rect class="st4" x="596.38" y="499.1" width="10.59" height="24.94"/>
    <path class="st4" d="M779.64,524.04h-12.15l-7.61-14.54c-.74-1.42-2.2-2.3-3.79-2.3h-5.77v16.84h-10.63v-12.62c0-.97.38-1.89,1.07-2.58l9.27-9.27c.7-.69,1.61-1.07,2.58-1.07h8.14c4.26,0,7.47-3.13,7.47-7.28,0-3.89-3.35-7.06-7.47-7.06h-10.43v6.23l-9.12-5.18c-.93-.53-1.51-1.52-1.51-2.58v-7.8h21.54c10.37,0,17.62,6.74,17.62,16.4,0,6.42-3.45,11.72-9.22,14.19l-.56.24,10.56,18.4Z"/>
    <path class="st4" d="M480.52,524.04h-12.15l-7.61-14.54c-.74-1.42-2.2-2.3-3.79-2.3h-5.77v16.84h-10.63v-12.62c0-.97.38-1.89,1.07-2.58l9.28-9.27c.69-.69,1.6-1.07,2.58-1.07h8.14c4.26,0,7.47-3.13,7.47-7.28,0-3.89-3.35-7.06-7.47-7.06h-10.43v6.23l-9.12-5.18c-.93-.53-1.51-1.52-1.51-2.58v-7.8h21.54c10.37,0,17.62,6.74,17.62,16.4,0,6.42-3.45,11.72-9.22,14.19l-.56.24,10.56,18.4Z"/>
    <path class="st4" d="M654.82,491.7c0,10.4-7.01,17.39-17.44,17.39h-10.76v14.95h-10.64v-11.41c0-.92.36-1.79,1.02-2.45l9.38-9.39c.64-.64,1.54-1.01,2.45-1.01h7.93c4.17,0,7.43-3.56,7.43-8.1,0-4.02-3.47-7.55-7.43-7.55h-10.13v6.9l-9.02-4.87c-1-.53-1.62-1.57-1.62-2.7v-8.67h21.25c10.18,0,17.58,7.09,17.58,16.88Z"/>
    <g>
      <polygon class="st4" points="670.17 503.4 683.45 503.4 683.45 494.72 659.55 494.72 659.55 524.04 694.28 524.04 694.28 514.71 670.17 514.71 670.17 503.4"/>
      <polygon class="st4" points="709.53 514.71 709.53 503.4 722.81 503.4 722.81 494.72 698.91 494.72 698.91 524.04 733.64 524.04 733.64 514.71 709.53 514.71"/>
      <rect class="st4" x="659.55" y="474.81" width="73.76" height="9.29"/>
    </g>
  </g>
</svg>